<svg xmlns="http://www.w3.org/2000/svg" viewBox="0 0 1200 806" width="1200" height="806" font-family="'Avenir Next','Segoe UI',Roboto,sans-serif">
  <defs>
    <radialGradient id="glow" cx="50%" cy="42%" r="62%">
      <stop offset="0%" stop-color="#1a1040" stop-opacity=".85"/>
      <stop offset="55%" stop-color="#0a0a24" stop-opacity=".45"/>
      <stop offset="100%" stop-color="#040714" stop-opacity="0"/>
    </radialGradient>
    <filter id="soft" x="-60%" y="-60%" width="220%" height="220%">
      <feGaussianBlur stdDeviation="9"/>
    </filter>
  </defs>
  <rect width="1200" height="806" fill="#040714"/>
  <rect width="1200" height="806" fill="url(#glow)"/>
  
  
  <text x="64" y="88" fill="#B015B0" font-size="20" font-weight="700" letter-spacing="3.4">RECENCY</text>
  <text x="64" y="136" fill="#f9f9f9" font-size="42" font-weight="700" letter-spacing="-.4">13 new tools, spread across 8 of 11 sections</text>
  <text x="64" y="172" fill="rgba(255,255,255,.46)" font-size="21">50 cards in the catalog · nothing on the page said which were new</text>
  
    <text x="274" y="239" text-anchor="end" fill="#f9f9f9" font-size="22" font-weight="600">Planning</text>
    <rect x="300" y="220" width="284.4" height="28" rx="6" fill="rgba(255,255,255,.07)"/>
    <rect x="300" y="220" width="142.2" height="28" rx="6" fill="#B015B0" fill-opacity=".92"/>
    <text x="604.4444444444445" y="241" fill="#B015B0" font-size="20" font-weight="700">2 new</text>
    <text x="274" y="285" text-anchor="end" fill="#f9f9f9" font-size="22" font-weight="600">DevOps</text>
    <rect x="300" y="266" width="426.7" height="28" rx="6" fill="rgba(255,255,255,.07)"/>
    <rect x="300" y="266" width="142.2" height="28" rx="6" fill="#B015B0" fill-opacity=".92"/>
    <text x="746.6666666666666" y="287" fill="#B015B0" font-size="20" font-weight="700">2 new</text>
    <text x="274" y="331" text-anchor="end" fill="#f9f9f9" font-size="22" font-weight="600">Data</text>
    <rect x="300" y="312" width="213.3" height="28" rx="6" fill="rgba(255,255,255,.07)"/>
    <rect x="300" y="312" width="71.1" height="28" rx="6" fill="#B015B0" fill-opacity=".92"/>
    <text x="533.3333333333333" y="333" fill="#B015B0" font-size="20" font-weight="700">1 new</text>
    <text x="274" y="377" text-anchor="end" fill="#f9f9f9" font-size="22" font-weight="600">Productivity</text>
    <rect x="300" y="358" width="640.0" height="28" rx="6" fill="rgba(255,255,255,.07)"/>
    <rect x="300" y="358" width="142.2" height="28" rx="6" fill="#B015B0" fill-opacity=".92"/>
    <text x="960" y="379" fill="#B015B0" font-size="20" font-weight="700">2 new</text>
    <text x="274" y="423" text-anchor="end" fill="rgba(255,255,255,.46)" font-size="22" font-weight="400">UI Lab</text>
    <rect x="300" y="404" width="213.3" height="28" rx="6" fill="rgba(255,255,255,.07)"/>
    
    <text x="533.3333333333333" y="425" fill="rgba(255,255,255,.46)" font-size="20" font-weight="400">—</text>
    <text x="274" y="469" text-anchor="end" fill="#f9f9f9" font-size="22" font-weight="600">Fun</text>
    <rect x="300" y="450" width="640.0" height="28" rx="6" fill="rgba(255,255,255,.07)"/>
    <rect x="300" y="450" width="142.2" height="28" rx="6" fill="#B015B0" fill-opacity=".92"/>
    <text x="960" y="471" fill="#B015B0" font-size="20" font-weight="700">2 new</text>
    <text x="274" y="515" text-anchor="end" fill="#f9f9f9" font-size="22" font-weight="600">Social</text>
    <rect x="300" y="496" width="426.7" height="28" rx="6" fill="rgba(255,255,255,.07)"/>
    <rect x="300" y="496" width="71.1" height="28" rx="6" fill="#B015B0" fill-opacity=".92"/>
    <text x="746.6666666666666" y="517" fill="#B015B0" font-size="20" font-weight="700">1 new</text>
    <text x="274" y="561" text-anchor="end" fill="rgba(255,255,255,.46)" font-size="22" font-weight="400">Lifehacks</text>
    <rect x="300" y="542" width="71.1" height="28" rx="6" fill="rgba(255,255,255,.07)"/>
    
    <text x="391.1111111111111" y="563" fill="rgba(255,255,255,.46)" font-size="20" font-weight="400">—</text>
    <text x="274" y="607" text-anchor="end" fill="#f9f9f9" font-size="22" font-weight="600">Health</text>
    <rect x="300" y="588" width="71.1" height="28" rx="6" fill="rgba(255,255,255,.07)"/>
    <rect x="300" y="588" width="71.1" height="28" rx="6" fill="#B015B0" fill-opacity=".92"/>
    <text x="391.1111111111111" y="609" fill="#B015B0" font-size="20" font-weight="700">1 new</text>
    <text x="274" y="653" text-anchor="end" fill="#f9f9f9" font-size="22" font-weight="600">Growth</text>
    <rect x="300" y="634" width="142.2" height="28" rx="6" fill="rgba(255,255,255,.07)"/>
    <rect x="300" y="634" width="142.2" height="28" rx="6" fill="#B015B0" fill-opacity=".92"/>
    <text x="462.22222222222223" y="655" fill="#B015B0" font-size="20" font-weight="700">2 new</text>
    <text x="274" y="699" text-anchor="end" fill="rgba(255,255,255,.46)" font-size="22" font-weight="400">Platforms</text>
    <rect x="300" y="680" width="426.7" height="28" rx="6" fill="rgba(255,255,255,.07)"/>
    
    <text x="746.6666666666666" y="701" fill="rgba(255,255,255,.46)" font-size="20" font-weight="400">—</text>
  <rect x="300" y="726" width="18" height="18" rx="4" fill="#B015B0"/><text x="328" y="741" fill="rgba(255,255,255,.46)" font-size="18">shipped in the last 30 days</text><rect x="605" y="726" width="18" height="18" rx="4" fill="rgba(255,255,255,.07)"/><text x="633" y="741" fill="rgba(255,255,255,.46)" font-size="18">everything else</text>
  <text x="64" y="762" fill="rgba(255,255,255,.34)" font-size="17">Read from data-added on every card in index.html. Bar length is section size; the largest is 9 cards.</text>
</svg>